<?xml version="1.0" encoding="utf-8"?>
<svg
	version="1.1"
	xmlns="http://www.w3.org/2000/svg"
	xmlns:xlink="http://www.w3.org/1999/xlink"
	x="0%" y="0%"
	width="100%" height="100%"
	viewBox="0 0 24.0 24.0"
	enable-background="new 0 0 24.0 24.0"
	xml:space="preserve">
<defs>
	<linearGradient id="stkGrad4" x1="50.000%" y1="50.000%" x2="100.000%" y2="50.000%">
   		<stop offset="0.000%" style="stop-color:rgb(65,0,249);stop-opacity:1.000" />
		<stop offset="50.000%" style="stop-color:rgb(216,11,255);stop-opacity:1.000" />
		<stop offset="100.000%" style="stop-color:rgb(0,180,255);stop-opacity:1.000" />
	</linearGradient>

	<linearGradient id="stkGrad11" x1="50.000%" y1="50.000%" x2="100.000%" y2="50.000%">
   		<stop offset="0.000%" style="stop-color:rgb(65,0,249);stop-opacity:1.000" />
		<stop offset="50.000%" style="stop-color:rgb(216,11,255);stop-opacity:1.000" />
		<stop offset="100.000%" style="stop-color:rgb(0,180,255);stop-opacity:1.000" />
	</linearGradient>

	<linearGradient id="stkGrad12" x1="50.000%" y1="50.000%" x2="100.000%" y2="50.000%">
   		<stop offset="0.000%" style="stop-color:rgb(65,0,249);stop-opacity:1.000" />
		<stop offset="50.000%" style="stop-color:rgb(216,11,255);stop-opacity:1.000" />
		<stop offset="100.000%" style="stop-color:rgb(0,180,255);stop-opacity:1.000" />
	</linearGradient>

	<linearGradient id="stkGrad25" x1="50.000%" y1="50.000%" x2="100.000%" y2="50.000%">
   		<stop offset="0.000%" style="stop-color:rgb(65,0,249);stop-opacity:1.000" />
		<stop offset="50.000%" style="stop-color:rgb(216,11,255);stop-opacity:1.000" />
		<stop offset="100.000%" style="stop-color:rgb(0,180,255);stop-opacity:1.000" />
	</linearGradient>

	<linearGradient id="stkGrad26" x1="50.000%" y1="50.000%" x2="100.000%" y2="50.000%">
   		<stop offset="0.000%" style="stop-color:rgb(65,0,249);stop-opacity:1.000" />
		<stop offset="50.000%" style="stop-color:rgb(216,11,255);stop-opacity:1.000" />
		<stop offset="100.000%" style="stop-color:rgb(0,180,255);stop-opacity:1.000" />
	</linearGradient>

	<linearGradient id="stkGrad33" x1="50.000%" y1="50.000%" x2="100.000%" y2="50.000%">
   		<stop offset="0.000%" style="stop-color:rgb(65,0,249);stop-opacity:1.000" />
		<stop offset="50.000%" style="stop-color:rgb(216,11,255);stop-opacity:1.000" />
		<stop offset="100.000%" style="stop-color:rgb(0,180,255);stop-opacity:1.000" />
	</linearGradient>

</defs>
	<path
		transform = "rotate(-0.00 8.20 21.76)"
		fill="#FFFFFF"
		stroke="url(#stkGrad4)"
		fill-opacity="0.000"
		stroke-opacity="1.0"
		fill-rule="nonzero"
		stroke-width="0.6748617"
		stroke-linejoin="miter"
		stroke-linecap="square"
		d="M11.31,20.45L11.31,21.76Q11.31,23.07,10.00,23.07L5.08,23.02M3.94,22.03Q3.94,23.02,4.86,23.02M11.37,20.46Q13.06,20.48,13.44,18.48"/>
	<path
		transform = "rotate(-0.00 5.94 14.80)"
		fill="#FFFFFF"
		stroke="url(#stkGrad11)"
		fill-opacity="0.000"
		stroke-opacity="1.0"
		fill-rule="nonzero"
		stroke-width="0.6748617"
		stroke-linejoin="miter"
		stroke-linecap="square"
		d="M3.95,21.71L3.96,12.88Q3.92,11.93,4.92,10.96L7.93,7.89"/>
	<path
		transform = "rotate(-91.35 17.80 9.59)"
		fill="#FFFFFF"
		stroke="url(#stkGrad12)"
		fill-opacity="1.000"
		stroke-opacity="1.0"
		fill-rule="nonzero"
		stroke-width="0.6748616"
		stroke-linejoin="round"
		stroke-linecap="square"
		d="M9.78,9.40L25.81,9.78M9.46,1.18L9.26,9.60M26.37,7.87L9.70,7.50"/>
	<path
		transform = "rotate(-0.00 13.77 9.58)"
		fill="#FFFFFF"
		stroke="url(#stkGrad25)"
		fill-opacity="0.000"
		stroke-opacity="1.0"
		fill-rule="nonzero"
		stroke-width="0.6748616"
		stroke-linejoin="round"
		stroke-linecap="square"
		d="M8.23,12.37L8.23,2.19Q8.29,1.09,9.62,1.09L18.16,1.04Q19.25,1.06,19.23,2.16L19.31,17.06Q19.31,18.12,18.34,18.12"/>
	<path
		transform = "rotate(-269.51 9.78 4.04)"
		fill="#FFFFFF"
		stroke="url(#stkGrad26)"
		fill-opacity="1.000"
		stroke-opacity="1.0"
		fill-rule="nonzero"
		stroke-width="0.6748616"
		stroke-linejoin="round"
		stroke-linecap="round"
		d="M7.93,4.05L11.63,4.02M12.86,4.01L12.86,4.01zM12.85,2.47L7.91,2.51"/>
	<path
		transform = "rotate(-0.00 11.68 14.20)"
		fill="#FFFFFF"
		stroke="url(#stkGrad33)"
		fill-opacity="0.000"
		stroke-opacity="1.0"
		fill-rule="nonzero"
		stroke-width="0.6748616"
		stroke-linejoin="round"
		stroke-linecap="round"
		d="M11.43,9.54C13.18,7.74,15.51,9.57,13.80,11.55L9.60,15.70Q9.74,17.88,8.97,19.60M11.37,9.61L6.47,14.47"/>
</svg>