<?xml version="1.0" encoding="utf-8"?>
<svg
	version="1.1"
	xmlns="http://www.w3.org/2000/svg"
	xmlns:xlink="http://www.w3.org/1999/xlink"
	x="0%" y="0%"
	width="100px" height="100px"
	viewBox="0 0 360.0 360.0"
	enable-background="new 0 0 360.0 360.0"
	xml:space="preserve">
<defs>
	<linearGradient id="fillGrad0" x1="-22.755%" y1="50.000%" x2="89.837%" y2="50.000%">
   		<stop offset="0.000%" style="stop-color:rgb(109,51,0);stop-opacity:1.000" />
		<stop offset="50.000%" style="stop-color:rgb(255,108,0);stop-opacity:1.000" />
		<stop offset="100.000%" style="stop-color:rgb(239,150,0);stop-opacity:1.000" />
	</linearGradient>

	<linearGradient id="fillGrad11" x1="-22.755%" y1="50.000%" x2="89.837%" y2="50.000%">
   		<stop offset="0.000%" style="stop-color:rgb(109,51,0);stop-opacity:1.000" />
		<stop offset="50.000%" style="stop-color:rgb(255,108,0);stop-opacity:1.000" />
		<stop offset="100.000%" style="stop-color:rgb(239,150,0);stop-opacity:1.000" />
	</linearGradient>

	<linearGradient id="fillGrad12" x1="-22.755%" y1="50.000%" x2="89.837%" y2="50.000%">
   		<stop offset="0.000%" style="stop-color:rgb(109,51,0);stop-opacity:1.000" />
		<stop offset="50.000%" style="stop-color:rgb(255,108,0);stop-opacity:1.000" />
		<stop offset="100.000%" style="stop-color:rgb(239,150,0);stop-opacity:1.000" />
	</linearGradient>

	<linearGradient id="fillGrad14" x1="-22.755%" y1="50.000%" x2="89.837%" y2="50.000%">
   		<stop offset="0.000%" style="stop-color:rgb(109,51,0);stop-opacity:1.000" />
		<stop offset="50.000%" style="stop-color:rgb(255,108,0);stop-opacity:1.000" />
		<stop offset="100.000%" style="stop-color:rgb(239,150,0);stop-opacity:1.000" />
	</linearGradient>

	<linearGradient id="fillGrad17" x1="-22.755%" y1="50.000%" x2="89.837%" y2="50.000%">
   		<stop offset="0.000%" style="stop-color:rgb(109,51,0);stop-opacity:1.000" />
		<stop offset="50.000%" style="stop-color:rgb(255,108,0);stop-opacity:1.000" />
		<stop offset="100.000%" style="stop-color:rgb(239,150,0);stop-opacity:1.000" />
	</linearGradient>

	<linearGradient id="fillGrad28" x1="-22.755%" y1="50.000%" x2="89.837%" y2="50.000%">
   		<stop offset="0.000%" style="stop-color:rgb(109,51,0);stop-opacity:1.000" />
		<stop offset="50.000%" style="stop-color:rgb(255,108,0);stop-opacity:1.000" />
		<stop offset="100.000%" style="stop-color:rgb(239,150,0);stop-opacity:1.000" />
	</linearGradient>

	<linearGradient id="fillGrad29" x1="-22.755%" y1="50.000%" x2="89.837%" y2="50.000%">
   		<stop offset="0.000%" style="stop-color:rgb(109,51,0);stop-opacity:1.000" />
		<stop offset="50.000%" style="stop-color:rgb(255,108,0);stop-opacity:1.000" />
		<stop offset="100.000%" style="stop-color:rgb(239,150,0);stop-opacity:1.000" />
	</linearGradient>

	<linearGradient id="fillGrad31" x1="-22.755%" y1="50.000%" x2="89.837%" y2="50.000%">
   		<stop offset="0.000%" style="stop-color:rgb(109,51,0);stop-opacity:1.000" />
		<stop offset="50.000%" style="stop-color:rgb(255,108,0);stop-opacity:1.000" />
		<stop offset="100.000%" style="stop-color:rgb(239,150,0);stop-opacity:1.000" />
	</linearGradient>

	<linearGradient id="fillGrad34" x1="-22.755%" y1="50.000%" x2="89.837%" y2="50.000%">
   		<stop offset="0.000%" style="stop-color:rgb(109,51,0);stop-opacity:1.000" />
		<stop offset="50.000%" style="stop-color:rgb(255,108,0);stop-opacity:1.000" />
		<stop offset="100.000%" style="stop-color:rgb(239,150,0);stop-opacity:1.000" />
	</linearGradient>

	<linearGradient id="fillGrad45" x1="-22.755%" y1="50.000%" x2="89.837%" y2="50.000%">
   		<stop offset="0.000%" style="stop-color:rgb(109,51,0);stop-opacity:1.000" />
		<stop offset="50.000%" style="stop-color:rgb(255,108,0);stop-opacity:1.000" />
		<stop offset="100.000%" style="stop-color:rgb(239,150,0);stop-opacity:1.000" />
	</linearGradient>

	<linearGradient id="fillGrad46" x1="-22.755%" y1="50.000%" x2="89.837%" y2="50.000%">
   		<stop offset="0.000%" style="stop-color:rgb(109,51,0);stop-opacity:1.000" />
		<stop offset="50.000%" style="stop-color:rgb(255,108,0);stop-opacity:1.000" />
		<stop offset="100.000%" style="stop-color:rgb(239,150,0);stop-opacity:1.000" />
	</linearGradient>

	<linearGradient id="fillGrad48" x1="-22.755%" y1="50.000%" x2="89.837%" y2="50.000%">
   		<stop offset="0.000%" style="stop-color:rgb(109,51,0);stop-opacity:1.000" />
		<stop offset="50.000%" style="stop-color:rgb(255,108,0);stop-opacity:1.000" />
		<stop offset="100.000%" style="stop-color:rgb(239,150,0);stop-opacity:1.000" />
	</linearGradient>

</defs>
	<path
		transform = "rotate(-0.00 89.81 79.80)"
		fill="url(#fillGrad0)"
		stroke="#740E00"
		fill-opacity="1.0"
		stroke-opacity="0.992"
		fill-rule="nonzero"
		stroke-width="7.2"
		stroke-linejoin="round"
		stroke-linecap="round"
		d="M54.46,10.80L125.16,10.80A11.78 11.78 0 0 1 136.94,22.58L136.94,137.02A11.78 11.78 0 0 1 125.16,148.80L54.46,148.80A11.78 11.78 0 0 1 42.68,137.02L42.68,22.58A11.78 11.78 0 0 1 54.46,10.80z"/>
	<path
		transform = "rotate(-0.00 49.51 127.59)"
		fill="url(#fillGrad11)"
		stroke="#740E00"
		fill-opacity="1.0"
		stroke-opacity="0.992"
		fill-rule="nonzero"
		stroke-width="7.2"
		stroke-linejoin="round"
		stroke-linecap="round"
		d="M54.31,148.80L85.81,148.80Q85.81,163.80,68.81,169.80L68.66,190.80L7.81,190.80L7.06,100.80L42.95,64.37L42.68,106.43L28.81,120.30L69.01,80.40L69.01,80.40C85.81,63.30,100.81,85.80,85.81,98.30L55.81,130.80Q55.88,149.60,48.31,163.30"/>
	<path
		transform = "rotate(-274.39 105.20 79.37)"
		fill="url(#fillGrad12)"
		stroke="#740E00"
		fill-opacity="1.0"
		stroke-opacity="0.992"
		fill-rule="nonzero"
		stroke-width="7.2"
		stroke-linejoin="round"
		stroke-linecap="round"
		d="M36.84,74.01L173.57,84.74M174.76,69.14L38.04,58.41"/>
	<path
		transform = "rotate(-270.01 55.81 35.65)"
		fill="url(#fillGrad14)"
		stroke="#740E00"
		fill-opacity="1.0"
		stroke-opacity="0.992"
		fill-rule="nonzero"
		stroke-width="7.2"
		stroke-linejoin="round"
		stroke-linecap="round"
		d="M41.02,35.64L70.59,35.65M80.74,23.10L41.03,23.09M80.74,35.65L80.74,35.65z"/>
	<path
		transform = "rotate(-0.00 305.81 241.80)"
		fill="url(#fillGrad17)"
		stroke="#740E00"
		fill-opacity="1.0"
		stroke-opacity="0.992"
		fill-rule="nonzero"
		stroke-width="7.2"
		stroke-linejoin="round"
		stroke-linecap="round"
		d="M270.46,172.80L341.16,172.80A11.78 11.78 0 0 1 352.94,184.58L352.94,299.02A11.78 11.78 0 0 1 341.16,310.80L270.46,310.80A11.78 11.78 0 0 1 258.68,299.02L258.68,184.58A11.78 11.78 0 0 1 270.46,172.80z"/>
	<path
		transform = "rotate(-0.00 265.51 289.59)"
		fill="url(#fillGrad28)"
		stroke="#740E00"
		fill-opacity="1.0"
		stroke-opacity="0.992"
		fill-rule="nonzero"
		stroke-width="7.2"
		stroke-linejoin="round"
		stroke-linecap="round"
		d="M270.31,310.80L301.81,310.80Q301.81,325.80,284.81,331.80L284.66,352.80L223.81,352.80L223.06,262.80L258.95,226.37L258.68,268.43L244.81,282.30L285.01,242.40L285.01,242.40C301.81,225.30,316.81,247.80,301.81,260.30L271.81,292.80Q271.88,311.60,264.31,325.30"/>
	<path
		transform = "rotate(-274.39 321.20 241.37)"
		fill="url(#fillGrad29)"
		stroke="#740E00"
		fill-opacity="1.0"
		stroke-opacity="0.992"
		fill-rule="nonzero"
		stroke-width="7.2"
		stroke-linejoin="round"
		stroke-linecap="round"
		d="M252.84,236.01L389.57,246.74M390.76,231.14L254.04,220.41"/>
	<path
		transform = "rotate(-270.01 271.81 197.65)"
		fill="url(#fillGrad31)"
		stroke="#740E00"
		fill-opacity="1.0"
		stroke-opacity="0.992"
		fill-rule="nonzero"
		stroke-width="7.2"
		stroke-linejoin="round"
		stroke-linecap="round"
		d="M257.02,197.64L286.59,197.65M296.74,185.10L257.03,185.09M296.74,197.65L296.74,197.65z"/>
	<path
		transform = "rotate(-0.00 208.67 143.88)"
		fill="url(#fillGrad34)"
		stroke="#740E00"
		fill-opacity="1.0"
		stroke-opacity="0.992"
		fill-rule="nonzero"
		stroke-width="12.481958"
		stroke-linejoin="round"
		stroke-linecap="round"
		d="M146.91,25.20L270.43,25.20A20.59 20.59 0 0 1 291.02,45.79L291.02,241.97A20.59 20.59 0 0 1 270.43,262.56L146.91,262.56A20.59 20.59 0 0 1 126.32,241.97L126.32,45.79A20.59 20.59 0 0 1 146.91,25.20z"/>
	<path
		transform = "rotate(-0.00 138.26 226.07)"
		fill="url(#fillGrad45)"
		stroke="#740E00"
		fill-opacity="1.0"
		stroke-opacity="0.992"
		fill-rule="nonzero"
		stroke-width="12.481958"
		stroke-linejoin="round"
		stroke-linecap="round"
		d="M146.63,262.56L201.67,262.56Q201.67,288.36,171.97,298.68L171.72,334.80L65.39,334.80L64.08,180.00L126.79,117.34L126.32,189.68L102.08,213.54L172.31,144.91L172.31,144.91C201.67,115.50,227.88,154.20,201.67,175.70L149.25,231.60Q149.38,263.94,136.15,287.50"/>
	<path
		transform = "rotate(-274.39 235.56 143.14)"
		fill="url(#fillGrad46)"
		stroke="#740E00"
		fill-opacity="1.0"
		stroke-opacity="0.992"
		fill-rule="nonzero"
		stroke-width="12.481958"
		stroke-linejoin="round"
		stroke-linecap="round"
		d="M117.98,133.91L353.14,152.37M355.24,125.13L120.07,106.67"/>
	<path
		transform = "rotate(-270.01 149.25 67.94)"
		fill="url(#fillGrad48)"
		stroke="#740E00"
		fill-opacity="1.0"
		stroke-opacity="0.992"
		fill-rule="nonzero"
		stroke-width="12.481958"
		stroke-linejoin="round"
		stroke-linecap="round"
		d="M123.83,67.93L174.68,67.94M192.14,46.01L123.83,46.00M192.13,67.95L192.13,67.95z"/>
</svg>